# xmcd
#
# Track frame offsets: 
#        150
#        19577
#        39237
#        51265
#        65274
#        82788
#        99839
#        123672
#        144730
#        160277
#        174525
#
# Disc length: 2780 seconds
#
# Revision: 0
# Processed by: cddbd v1.5.2PL0 Copyright (c) Steve Scherf et al.
# Submitted via: ExactAudioCopy v1.0b1
#
DISCID=850ada0b
DTITLE=The Low Anthem - Smart Flesh
DYEAR=2011
DGENRE=Alternative Country
TTITLE0=Ghost Woman Blues
TTITLE1=Apothecary Love
TTITLE2=Boeing 737
TTITLE3=Love And Altar
TTITLE4=Matter Of Time
TTITLE5=Wire
TTITLE6=Burn
TTITLE7=Hey, All You Hippies!
TTITLE8=I'll Take Your Ashes
TTITLE9=Golden Cattle
TTITLE10=Smart Flesh
EXTD=
EXTT0=
EXTT1=
EXTT2=
EXTT3=
EXTT4=
EXTT5=
EXTT6=
EXTT7=
EXTT8=
EXTT9=
EXTT10=
PLAYORDER=
